<svg xmlns="http://www.w3.org/2000/svg" viewBox="0 0 960 540"><defs><linearGradient id="bg" x1="0" y1="0" x2="1" y2="1"><stop stop-color="#031a55"/><stop offset="1" stop-color="#062b78"/></linearGradient><linearGradient id="panel" x1="0" y1="0" x2="0" y2="1"><stop stop-color="#5b18c9"/><stop offset="1" stop-color="#24105f"/></linearGradient><filter id="shadow"><feDropShadow dx="0" dy="8" stdDeviation="5" flood-opacity=".55"/></filter></defs><rect width="960" height="540" fill="url(#bg)"/><g fill="none" stroke="#1788ff" stroke-width="7" opacity=".45"><path d="M-50 470 Q220 170 510 450 T1010 170"/><path d="M-30 90 Q240 350 500 70 T990 370"/></g><g fill="#2b8cff" opacity=".7"><path d="M85 85l8 18 19 2-14 13 4 19-17-10-17 10 4-19-14-13 19-2z"/><path d="M835 80l8 18 19 2-14 13 4 19-17-10-17 10 4-19-14-13 19-2z"/><path d="M110 450l6 14 15 1-11 10 3 15-13-8-13 8 3-15-11-10 15-1z"/></g><g filter="url(#shadow)"><rect x="105" y="145" width="750" height="190" rx="30" fill="url(#panel)" stroke="#ffd21b" stroke-width="8"/><text x="480" y="215" text-anchor="middle" font-family="Arial,Segoe UI,sans-serif" font-size="54" font-weight="900" fill="#ffd21b">ESTAMOS</text><text x="480" y="278" text-anchor="middle" font-family="Arial,Segoe UI,sans-serif" font-size="45" font-weight="900" fill="#fff">MEJORANDO LA SEÑAL</text><rect x="175" y="365" width="610" height="92" rx="25" fill="url(#panel)" stroke="#ffd21b" stroke-width="7"/><text x="480" y="426" text-anchor="middle" font-family="Arial,Segoe UI,sans-serif" font-size="39" font-weight="900" fill="#ffd21b">EN BREVE VOLVEMOS</text></g></svg>